<svg width="55" height="55" viewBox="0 0 55 55" fill="none" xmlns="http://www.w3.org/2000/svg">
<g filter="url(#filter0_d)">
<circle cx="27.1426" cy="27.8478" r="22" fill="white"/>
</g>
<path d="M33.1627 29.549L34.686 22.0209C34.7508 21.7555 34.7076 21.5142 34.5563 21.2971C34.4051 21.0799 34.1998 20.9713 33.9405 20.9713H21.2031L20.9114 19.3427C20.8682 19.1496 20.771 18.9928 20.6197 18.8722C20.4901 18.7274 20.3388 18.655 20.166 18.655H16.8277C16.6116 18.655 16.4279 18.7394 16.2767 18.9083C16.1254 19.0772 16.0498 19.2823 16.0498 19.5236V20.1027C16.0498 20.344 16.1254 20.5491 16.2767 20.718C16.4279 20.8869 16.6116 20.9713 16.8277 20.9713H19.0964L21.3652 33.3854C21.0843 33.5784 20.8574 33.8318 20.6845 34.1455C20.5333 34.4591 20.4577 34.7969 20.4577 35.1588C20.4577 35.7138 20.6305 36.1843 20.9762 36.5704C21.3436 36.9805 21.7757 37.1856 22.2727 37.1856C22.7696 37.1856 23.191 36.9805 23.5367 36.5704C23.904 36.1843 24.0877 35.7017 24.0877 35.1227C24.0877 34.5677 23.904 34.0972 23.5367 33.7111H30.3429C29.9756 34.0972 29.792 34.5677 29.792 35.1227C29.792 35.7017 29.9648 36.1843 30.3105 36.5704C30.6778 36.9805 31.11 37.1856 31.607 37.1856C32.1039 37.1856 32.5253 36.9805 32.871 36.5704C33.2383 36.1843 33.422 35.7138 33.422 35.1588C33.422 34.7728 33.3247 34.4229 33.1303 34.1093C32.9574 33.7715 32.7089 33.5181 32.3848 33.3492L32.5793 32.4444C32.6225 32.179 32.5685 31.9377 32.4172 31.7205C32.266 31.5034 32.0715 31.3948 31.8338 31.3948H23.1153L22.9209 30.2366H32.4172C32.5901 30.2366 32.7413 30.1763 32.871 30.0557C33.0222 29.935 33.1195 29.7661 33.1627 29.549Z" fill="#4E4E4E"/>
<defs>
<filter id="filter0_d" x="0.142578" y="0.847839" width="54" height="54" filterUnits="userSpaceOnUse" color-interpolation-filters="sRGB">
<feFlood flood-opacity="0" result="BackgroundImageFix"/>
<feColorMatrix in="SourceAlpha" type="matrix" values="0 0 0 0 0 0 0 0 0 0 0 0 0 0 0 0 0 0 127 0"/>
<feOffset/>
<feGaussianBlur stdDeviation="2.5"/>
<feColorMatrix type="matrix" values="0 0 0 0 0 0 0 0 0 0 0 0 0 0 0 0 0 0 0.25 0"/>
<feBlend mode="normal" in2="BackgroundImageFix" result="effect1_dropShadow"/>
<feBlend mode="normal" in="SourceGraphic" in2="effect1_dropShadow" result="shape"/>
</filter>
</defs>
</svg>
