<svg width="22" height="19" viewBox="0 0 22 19" fill="none" xmlns="http://www.w3.org/2000/svg">
<path d="M11.4911 18.2277L11.1442 17.8675L11.1375 17.8741L11.4911 18.2277ZM18.4442 11.5312L18.7911 11.8915L18.7978 11.8848L18.4442 11.5312ZM11 3.69643L10.6487 4.05223L11 4.39907L11.3513 4.05223L11 3.69643ZM3.54464 11.5089L3.8918 11.1491L3.88305 11.1406L3.8739 11.1326L3.54464 11.5089ZM10.5089 18.2277L10.8625 17.8741L10.8561 17.8678L10.5089 18.2277ZM11 18.9286C11.3023 18.9286 11.6108 18.8151 11.8446 18.5812L11.1375 17.8741C11.1035 17.9082 11.0549 17.9286 11 17.9286V18.9286ZM11.8379 18.5878L18.791 11.8914L18.0974 11.1711L11.1442 17.8675L11.8379 18.5878ZM18.7978 11.8848C18.7962 11.8863 18.7971 11.8854 18.8062 11.8767C18.8134 11.8698 18.8238 11.8599 18.836 11.8481C18.8609 11.8242 18.8944 11.7917 18.9351 11.7513C19.0165 11.6706 19.1261 11.5586 19.2543 11.4188C19.5103 11.1399 19.8421 10.7482 20.1714 10.2708C20.8229 9.3261 21.5 7.9947 21.5 6.50893H20.5C20.5 7.70173 19.9494 8.83127 19.3482 9.703C18.7524 10.5669 18.148 11.1203 18.0906 11.1777L18.7978 11.8848ZM21.5 6.50893C21.5 4.77098 20.9668 3.3248 19.9337 2.3137C18.902 1.30395 17.4305 0.785713 15.6652 0.785713V1.78571C17.2369 1.78571 18.4328 2.24404 19.2343 3.02838C20.0343 3.81136 20.5 4.97679 20.5 6.50893H21.5ZM15.6652 0.785713C14.5612 0.785713 13.5237 1.21878 12.671 1.73744C11.814 2.25869 11.1051 2.89 10.6487 3.34063L11.3513 4.05223C11.7766 3.63232 12.4237 3.05827 13.1906 2.5918C13.9618 2.12273 14.816 1.78571 15.6652 1.78571V0.785713ZM11.3513 3.34063C10.8949 2.89 10.186 2.25869 9.32903 1.73744C8.47633 1.21878 7.43879 0.785713 6.33482 0.785713V1.78571C7.18398 1.78571 8.03818 2.12273 8.80936 2.5918C9.57627 3.05827 10.2234 3.63232 10.6487 4.05223L11.3513 3.34063ZM6.33482 0.785713C4.56947 0.785713 3.09803 1.30395 2.06629 2.3137C1.03318 3.3248 0.5 4.77098 0.5 6.50893H1.5C1.5 4.97679 1.96571 3.81136 2.76574 3.02838C3.56715 2.24404 4.76312 1.78571 6.33482 1.78571V0.785713ZM0.5 6.50893C0.5 7.99464 1.17703 9.32604 1.82736 10.2681C2.4819 11.2163 3.14882 11.827 3.21539 11.8852L3.8739 11.1326C3.87406 11.1328 3.86364 11.1235 3.84263 11.1039C3.82255 11.0852 3.7944 11.0584 3.75934 11.0241C3.68921 10.9555 3.59197 10.8571 3.47689 10.7324C3.24628 10.4824 2.94664 10.1293 2.65032 9.70005C2.05065 8.83133 1.5 7.70179 1.5 6.50893H0.5ZM3.19749 11.8688L10.1618 18.5875L10.8561 17.8678L3.8918 11.1491L3.19749 11.8688ZM10.1554 18.5812C10.3892 18.8151 10.6977 18.9286 11 18.9286V17.9286C10.9451 17.9286 10.8965 17.9082 10.8625 17.8741L10.1554 18.5812Z" fill="black"/>
</svg>
