<svg width="276" height="56" viewBox="0 0 276 56" fill="none" xmlns="http://www.w3.org/2000/svg">
<path d="M0 53.5944V0H14.3206C18.6057 0 22.4023 1.0552 25.7104 3.16561C29.0408 5.27601 31.6163 8.26984 33.4369 12.1471C35.2575 16.0243 36.1678 20.466 36.1678 25.4721V28.1592C36.1678 33.2389 35.2464 37.7051 33.4036 41.5578C31.583 45.4105 28.9742 48.3798 25.5772 50.4656C22.2024 52.5515 18.3281 53.5944 13.9542 53.5944H0ZM8.42583 7.50911V46.1589H13.9209C18.3392 46.1589 21.7251 44.6375 24.0786 41.5946C26.4542 38.5271 27.6642 34.1345 27.7087 28.4168V25.4353C27.7087 19.6194 26.5652 15.1777 24.2784 12.1103C21.9915 9.04283 18.6723 7.50911 14.3206 7.50911H8.42583Z" fill="black"/>
<path d="M0 53.5944V0H14.3206C18.6057 0 22.4023 1.0552 25.7104 3.16561C29.0408 5.27601 31.6163 8.26984 33.4369 12.1471C35.2575 16.0243 36.1678 20.466 36.1678 25.4721V28.1592C36.1678 33.2389 35.2464 37.7051 33.4036 41.5578C31.583 45.4105 28.9742 48.3798 25.5772 50.4656C22.2024 52.5515 18.3281 53.5944 13.9542 53.5944H0ZM8.42583 7.50911V46.1589H13.9209C18.3392 46.1589 21.7251 44.6375 24.0786 41.5946C26.4542 38.5271 27.6642 34.1345 27.7087 28.4168V25.4353C27.7087 19.6194 26.5652 15.1777 24.2784 12.1103C21.9915 9.04283 18.6723 7.50911 14.3206 7.50911H8.42583Z" fill="url(#paint0_linear)" fill-opacity="0.5"/>
<path d="M49.36 53.5944H40.9675V0H49.36V53.5944Z" fill="black"/>
<path d="M49.36 53.5944H40.9675V0H49.36V53.5944Z" fill="url(#paint1_linear)" fill-opacity="0.5"/>
<path d="M64.051 46.1589H86.0647V53.5944H55.6251V0H64.051V46.1589Z" fill="black"/>
<path d="M64.051 46.1589H86.0647V53.5944H55.6251V0H64.051V46.1589Z" fill="url(#paint2_linear)" fill-opacity="0.5"/>
<path d="M97.3253 53.5944H88.9328V0H97.3253V53.5944Z" fill="black"/>
<path d="M97.3253 53.5944H88.9328V0H97.3253V53.5944Z" fill="url(#paint3_linear)" fill-opacity="0.5"/>
<path d="M140.896 48.2079C139.142 50.7355 136.711 52.6495 133.603 53.9501C130.495 55.2507 126.964 55.901 123.012 55.901C118.949 55.901 115.353 54.8826 112.222 52.8459C109.091 50.8091 106.671 47.9011 104.962 44.122C103.274 40.3184 102.397 35.889 102.331 30.8339V26.6376C102.331 18.5395 104.085 12.2206 107.593 7.68077C111.101 3.11641 115.996 0.834229 122.28 0.834229C127.675 0.834229 131.96 2.3066 135.135 5.25135C138.31 8.1961 140.219 12.4414 140.863 17.9874H132.604C131.671 11.5335 128.285 8.30653 122.446 8.30653C118.672 8.30653 115.797 9.81571 113.821 12.8341C111.867 15.8279 110.857 20.2328 110.79 26.0486V30.1713C110.79 35.9626 111.889 40.4656 114.087 43.6803C116.307 46.8705 119.382 48.4655 123.312 48.4655C127.619 48.4655 130.683 47.3858 132.504 45.2263V34.7357H122.513V27.6683H140.896V48.2079Z" fill="#E75643"/>
<path d="M140.896 48.2079C139.142 50.7355 136.711 52.6495 133.603 53.9501C130.495 55.2507 126.964 55.901 123.012 55.901C118.949 55.901 115.353 54.8826 112.222 52.8459C109.091 50.8091 106.671 47.9011 104.962 44.122C103.274 40.3184 102.397 35.889 102.331 30.8339V26.6376C102.331 18.5395 104.085 12.2206 107.593 7.68077C111.101 3.11641 115.996 0.834229 122.28 0.834229C127.675 0.834229 131.96 2.3066 135.135 5.25135C138.31 8.1961 140.219 12.4414 140.863 17.9874H132.604C131.671 11.5335 128.285 8.30653 122.446 8.30653C118.672 8.30653 115.797 9.81571 113.821 12.8341C111.867 15.8279 110.857 20.2328 110.79 26.0486V30.1713C110.79 35.9626 111.889 40.4656 114.087 43.6803C116.307 46.8705 119.382 48.4655 123.312 48.4655C127.619 48.4655 130.683 47.3858 132.504 45.2263V34.7357H122.513V27.6683H140.896V48.2079Z" fill="url(#paint4_linear)" fill-opacity="0.5"/>
<path d="M236.098 55.1648H227.672L206.058 17.1408V55.1648H197.633V1.57042H206.058L227.739 39.7417V1.57042H236.098V55.1648Z" fill="#E75643"/>
<path d="M236.098 55.1648H227.672L206.058 17.1408V55.1648H197.633V1.57042H206.058L227.739 39.7417V1.57042H236.098V55.1648Z" fill="url(#paint5_linear)" fill-opacity="0.5"/>
<path d="M276 9.07953H260.88V55.1648H252.521V9.07953H237.534V1.57042H276V9.07953Z" fill="#E75643"/>
<path d="M276 9.07953H260.88V55.1648H252.521V9.07953H237.534V1.57042H276V9.07953Z" fill="url(#paint6_linear)" fill-opacity="0.5"/>
<g clip-path="url(#clip0)">
<path d="M193.215 48.2714H147.429C146.993 48.2714 146.64 48.662 146.64 49.1439V52.6339C146.64 53.1158 146.993 53.5065 147.429 53.5065H193.215C193.651 53.5065 194.005 53.1158 194.005 52.6339V49.1439C194.005 48.662 193.651 48.2714 193.215 48.2714ZM192.426 51.7614H148.218V50.0164H192.426V51.7614Z" fill="#E75643"/>
<path d="M164.223 12.2537C164.206 12.298 164.192 12.3432 164.182 12.39C163.958 12.1685 163.714 11.9725 163.455 11.8047C163.085 11.5669 162.61 11.6999 162.386 12.1037L156.553 22.6464L152.789 29.4501L151.795 28.7966C151.614 28.6777 151.397 28.6437 151.192 28.7029C150.988 28.7617 150.814 28.9087 150.708 29.111L149.91 30.6371C149.266 31.8785 149.64 33.4617 150.751 34.1966L169.252 46.3467C170.332 47.0355 171.557 47.3985 172.804 47.399H190.058C191.366 47.399 192.426 46.2269 192.426 44.7814V43.0364C192.426 42.5545 192.073 42.1639 191.637 42.1639H190.829C190.776 41.1456 190.543 40.1487 190.142 39.2302C190.133 39.2059 190.121 39.1825 190.109 39.1595C189.142 36.9837 187.32 35.4231 185.172 34.9306L179.036 33.5345C178.997 33.4314 178.952 33.3313 178.9 33.235L174.316 24.4579L186 2.66495C186.213 2.25127 186.088 1.72512 185.717 1.48228C185.347 1.23944 184.868 1.36981 184.643 1.77497L175.654 18.5386L166.029 12.3977L171.116 2.65601C171.331 2.23935 171.201 1.70893 170.825 1.46908C170.449 1.22922 169.969 1.36981 169.749 1.78349L164.389 12.0462C164.324 12.105 164.268 12.1753 164.223 12.2537ZM157.501 24.2772C160.596 26.6021 162.001 30.8526 160.99 34.8344L154.146 30.341L157.501 24.2772ZM190.847 44.7814C190.847 45.2632 190.494 45.6539 190.058 45.6539H172.804C171.837 45.6539 170.887 45.3736 170.049 44.8406L151.557 32.6961C151.186 32.4516 151.062 31.9237 151.278 31.5104L151.672 30.7487L170.821 43.3244C171.421 43.7069 172.102 43.9085 172.795 43.9089H190.847V44.7814ZM184.629 42.1639C184.96 41.1231 185.847 40.4248 186.845 40.4188H188.885C189.078 40.9782 189.195 41.5661 189.232 42.1639H184.629ZM178.266 35.1445L184.856 36.6407C186.061 36.9168 187.148 37.633 187.942 38.6738H186.845C184.976 38.6836 183.368 40.1398 182.992 42.1639H172.795C172.382 42.163 171.977 42.0429 171.619 41.8145L162.383 35.7482C163.802 30.9123 162.144 25.6235 158.323 22.7938L163.278 13.839C164.478 15.1899 164.021 17.2924 163.83 17.9724C163.521 19.0954 163.933 20.3079 164.835 20.9282L170.208 24.6722C169.964 25.442 169.98 26.283 170.251 27.0413L170.26 27.0648V27.0746C170.312 27.2356 170.378 27.3911 170.457 27.5385L173.378 33.1324C173.714 33.7812 174.287 34.2388 174.951 34.387L178.224 35.1339L178.266 35.1445ZM172.718 24.8877L173.707 26.781L172.342 27.6536L171.815 26.646C171.778 26.574 171.748 26.4977 171.725 26.4193C171.537 25.8859 171.599 25.2844 171.889 24.8111C172.018 24.5929 172.192 24.4114 172.396 24.2815H172.4L172.718 24.8877ZM173.132 29.163L174.497 28.2905L175.128 29.4949L173.764 30.3674L173.132 29.163ZM175.263 32.6744C175.045 32.6241 174.856 32.472 174.746 32.2573L174.548 31.8785L175.912 31.006L176.988 33.0667L175.263 32.6744ZM174.847 20.0365L173.408 22.7197L173.372 22.6515C173.154 22.2348 172.673 22.0913 172.295 22.3307L171.603 22.7669C171.412 22.8913 171.232 23.0375 171.068 23.2032L165.673 19.4426C165.377 19.2449 165.237 18.8508 165.334 18.4827C165.805 17.0065 165.762 15.3889 165.214 13.9455L165.236 13.9029L174.847 20.0365Z" fill="#E75643"/>
<path d="M150.587 9.88066H162.428C162.864 9.88066 163.218 9.48998 163.218 9.00814C163.218 8.52629 162.864 8.13562 162.428 8.13562H150.587C150.151 8.13562 149.797 8.52629 149.797 9.00814C149.797 9.48998 150.151 9.88066 150.587 9.88066Z" fill="#E75643"/>
<path d="M147.429 9.88066H148.218C148.654 9.88066 149.008 9.48998 149.008 9.00814C149.008 8.52629 148.654 8.13562 148.218 8.13562H147.429C146.993 8.13562 146.64 8.52629 146.64 9.00814C146.64 9.48998 146.993 9.88066 147.429 9.88066Z" fill="#E75643"/>
<path d="M158.481 15.1158C158.917 15.1158 159.271 14.7251 159.271 14.2432C159.271 13.7614 158.917 13.3707 158.481 13.3707H153.745C153.309 13.3707 152.955 13.7614 152.955 14.2432C152.955 14.7251 153.309 15.1158 153.745 15.1158H158.481Z" fill="#E75643"/>
<path d="M149.797 15.1158H150.587C151.023 15.1158 151.376 14.7251 151.376 14.2432C151.376 13.7614 151.023 13.3707 150.587 13.3707H149.797C149.362 13.3707 149.008 13.7614 149.008 14.2432C149.008 14.7251 149.362 15.1158 149.797 15.1158Z" fill="#E75643"/>
<path d="M156.113 4.64579H164.797C165.232 4.64579 165.586 4.25512 165.586 3.77327C165.586 3.29143 165.232 2.90076 164.797 2.90076H156.113C155.677 2.90076 155.323 3.29143 155.323 3.77327C155.323 4.25512 155.677 4.64579 156.113 4.64579Z" fill="#E75643"/>
<path d="M152.165 4.64579H152.955C153.391 4.64579 153.744 4.25512 153.744 3.77327C153.744 3.29143 153.391 2.90076 152.955 2.90076H152.165C151.729 2.90076 151.376 3.29143 151.376 3.77327C151.376 4.25512 151.729 4.64579 152.165 4.64579Z" fill="#E75643"/>
<path d="M151.376 42.1637C150.94 42.1637 150.587 42.5544 150.587 43.0362C150.587 43.5181 150.94 43.9087 151.376 43.9087H157.692C158.128 43.9087 158.481 43.5181 158.481 43.0362C158.481 42.5544 158.128 42.1637 157.692 42.1637H151.376Z" fill="#E75643"/>
<path d="M147.429 43.9087H148.218C148.654 43.9087 149.008 43.5181 149.008 43.0362C149.008 42.5544 148.654 42.1637 148.218 42.1637H147.429C146.993 42.1637 146.64 42.5544 146.64 43.0362C146.64 43.5181 146.993 43.9087 147.429 43.9087Z" fill="#E75643"/>
<path d="M147.429 23.841H151.376C151.812 23.841 152.166 23.4503 152.166 22.9685C152.166 22.4866 151.812 22.0959 151.376 22.0959H147.429C146.993 22.0959 146.64 22.4866 146.64 22.9685C146.64 23.4503 146.993 23.841 147.429 23.841Z" fill="#E75643"/>
<path d="M147.429 36.0563H148.218C148.654 36.0563 149.008 35.6657 149.008 35.1838C149.008 34.702 148.654 34.3113 148.218 34.3113H147.429C146.993 34.3113 146.64 34.702 146.64 35.1838C146.64 35.6657 146.993 36.0563 147.429 36.0563Z" fill="#E75643"/>
</g>
<defs>
<linearGradient id="paint0_linear" x1="46.936" y1="-16.556" x2="46.936" y2="71.9173" gradientUnits="userSpaceOnUse">
<stop offset="0.309392" stop-color="white"/>
<stop offset="0.475138" stop-color="white" stop-opacity="0"/>
</linearGradient>
<linearGradient id="paint1_linear" x1="46.936" y1="-16.556" x2="46.936" y2="71.9173" gradientUnits="userSpaceOnUse">
<stop offset="0.309392" stop-color="white"/>
<stop offset="0.475138" stop-color="white" stop-opacity="0"/>
</linearGradient>
<linearGradient id="paint2_linear" x1="46.936" y1="-16.556" x2="46.936" y2="71.9173" gradientUnits="userSpaceOnUse">
<stop offset="0.309392" stop-color="white"/>
<stop offset="0.475138" stop-color="white" stop-opacity="0"/>
</linearGradient>
<linearGradient id="paint3_linear" x1="46.936" y1="-16.556" x2="46.936" y2="71.9173" gradientUnits="userSpaceOnUse">
<stop offset="0.309392" stop-color="white"/>
<stop offset="0.475138" stop-color="white" stop-opacity="0"/>
</linearGradient>
<linearGradient id="paint4_linear" x1="186.189" y1="-14.9856" x2="186.189" y2="73.4877" gradientUnits="userSpaceOnUse">
<stop offset="0.309392" stop-color="white"/>
<stop offset="0.475138" stop-color="white" stop-opacity="0"/>
</linearGradient>
<linearGradient id="paint5_linear" x1="186.189" y1="-14.9856" x2="186.189" y2="73.4877" gradientUnits="userSpaceOnUse">
<stop offset="0.309392" stop-color="white"/>
<stop offset="0.475138" stop-color="white" stop-opacity="0"/>
</linearGradient>
<linearGradient id="paint6_linear" x1="186.189" y1="-14.9856" x2="186.189" y2="73.4877" gradientUnits="userSpaceOnUse">
<stop offset="0.309392" stop-color="white"/>
<stop offset="0.475138" stop-color="white" stop-opacity="0"/>
</linearGradient>
<clipPath id="clip0">
<rect width="47.3652" height="52.3511" fill="white" transform="translate(146.64 1.24329)"/>
</clipPath>
</defs>
</svg>
